<mxfile host="app.diagrams.net" modified="2023-09-04T15:53:31.512Z" agent="Mozilla/5.0 (Macintosh; Intel Mac OS X 10_15_7) AppleWebKit/537.36 (KHTML, like Gecko) Chrome/116.0.0.0 Safari/537.36" etag="R8_0Y3FZd-n2a-Ue74P6" version="21.7.0" type="device">
  <diagram name="第 1 页" id="c07lNYQhK9CVCoTClgft">
    <mxGraphModel dx="1088" dy="1861" grid="1" gridSize="10" guides="1" tooltips="1" connect="1" arrows="1" fold="1" page="1" pageScale="1" pageWidth="827" pageHeight="1169" math="0" shadow="0">
      <root>
        <mxCell id="0" />
        <mxCell id="1" parent="0" />
        <mxCell id="8h7iC2Ebg5H2qJNhDg57-7" value="" style="edgeStyle=orthogonalEdgeStyle;rounded=0;orthogonalLoop=1;jettySize=auto;html=1;entryX=0;entryY=0.5;entryDx=0;entryDy=0;" edge="1" parent="1" source="8h7iC2Ebg5H2qJNhDg57-1" target="8h7iC2Ebg5H2qJNhDg57-4">
          <mxGeometry relative="1" as="geometry" />
        </mxCell>
        <mxCell id="8h7iC2Ebg5H2qJNhDg57-1" value="Controller AuthController" style="rounded=0;whiteSpace=wrap;html=1;fillColor=#dae8fc;strokeColor=#6c8ebf;" vertex="1" parent="1">
          <mxGeometry x="70" y="60" width="210" height="40" as="geometry" />
        </mxCell>
        <mxCell id="8h7iC2Ebg5H2qJNhDg57-2" value="signin()" style="rounded=0;whiteSpace=wrap;html=1;" vertex="1" parent="1">
          <mxGeometry x="70" y="100" width="210" height="40" as="geometry" />
        </mxCell>
        <mxCell id="8h7iC2Ebg5H2qJNhDg57-3" value="signup()" style="rounded=0;whiteSpace=wrap;html=1;" vertex="1" parent="1">
          <mxGeometry x="70" y="140" width="210" height="40" as="geometry" />
        </mxCell>
        <mxCell id="8h7iC2Ebg5H2qJNhDg57-17" value="" style="edgeStyle=orthogonalEdgeStyle;rounded=0;orthogonalLoop=1;jettySize=auto;html=1;entryX=0;entryY=0.5;entryDx=0;entryDy=0;" edge="1" parent="1" source="8h7iC2Ebg5H2qJNhDg57-4" target="8h7iC2Ebg5H2qJNhDg57-11">
          <mxGeometry relative="1" as="geometry" />
        </mxCell>
        <mxCell id="8h7iC2Ebg5H2qJNhDg57-19" style="edgeStyle=orthogonalEdgeStyle;rounded=0;orthogonalLoop=1;jettySize=auto;html=1;entryX=0;entryY=0.5;entryDx=0;entryDy=0;" edge="1" parent="1" source="8h7iC2Ebg5H2qJNhDg57-4" target="8h7iC2Ebg5H2qJNhDg57-8">
          <mxGeometry relative="1" as="geometry" />
        </mxCell>
        <mxCell id="8h7iC2Ebg5H2qJNhDg57-4" value="Class AuthService" style="rounded=0;whiteSpace=wrap;html=1;fillColor=#dae8fc;strokeColor=#6c8ebf;" vertex="1" parent="1">
          <mxGeometry x="370" y="60" width="210" height="40" as="geometry" />
        </mxCell>
        <mxCell id="8h7iC2Ebg5H2qJNhDg57-5" value="signin()" style="rounded=0;whiteSpace=wrap;html=1;" vertex="1" parent="1">
          <mxGeometry x="370" y="100" width="210" height="40" as="geometry" />
        </mxCell>
        <mxCell id="8h7iC2Ebg5H2qJNhDg57-6" value="signup()" style="rounded=0;whiteSpace=wrap;html=1;" vertex="1" parent="1">
          <mxGeometry x="370" y="140" width="210" height="40" as="geometry" />
        </mxCell>
        <mxCell id="8h7iC2Ebg5H2qJNhDg57-27" value="" style="edgeStyle=orthogonalEdgeStyle;rounded=0;orthogonalLoop=1;jettySize=auto;html=1;entryX=0;entryY=0.5;entryDx=0;entryDy=0;" edge="1" parent="1" source="8h7iC2Ebg5H2qJNhDg57-8" target="8h7iC2Ebg5H2qJNhDg57-14">
          <mxGeometry relative="1" as="geometry" />
        </mxCell>
        <mxCell id="8h7iC2Ebg5H2qJNhDg57-28" style="edgeStyle=orthogonalEdgeStyle;rounded=0;orthogonalLoop=1;jettySize=auto;html=1;entryX=-0.007;entryY=0.634;entryDx=0;entryDy=0;entryPerimeter=0;" edge="1" parent="1" source="8h7iC2Ebg5H2qJNhDg57-8" target="8h7iC2Ebg5H2qJNhDg57-15">
          <mxGeometry relative="1" as="geometry" />
        </mxCell>
        <mxCell id="8h7iC2Ebg5H2qJNhDg57-29" style="edgeStyle=orthogonalEdgeStyle;rounded=0;orthogonalLoop=1;jettySize=auto;html=1;entryX=0;entryY=0.5;entryDx=0;entryDy=0;" edge="1" parent="1" source="8h7iC2Ebg5H2qJNhDg57-8" target="8h7iC2Ebg5H2qJNhDg57-24">
          <mxGeometry relative="1" as="geometry" />
        </mxCell>
        <mxCell id="8h7iC2Ebg5H2qJNhDg57-8" value="Class UserService" style="rounded=0;whiteSpace=wrap;html=1;fillColor=#dae8fc;strokeColor=#6c8ebf;" vertex="1" parent="1">
          <mxGeometry x="640" y="60" width="210" height="40" as="geometry" />
        </mxCell>
        <mxCell id="8h7iC2Ebg5H2qJNhDg57-9" value="find()" style="rounded=0;whiteSpace=wrap;html=1;" vertex="1" parent="1">
          <mxGeometry x="640" y="100" width="210" height="40" as="geometry" />
        </mxCell>
        <mxCell id="8h7iC2Ebg5H2qJNhDg57-10" value="create()" style="rounded=0;whiteSpace=wrap;html=1;" vertex="1" parent="1">
          <mxGeometry x="640" y="140" width="210" height="40" as="geometry" />
        </mxCell>
        <mxCell id="8h7iC2Ebg5H2qJNhDg57-11" value="Class JwtService" style="rounded=0;whiteSpace=wrap;html=1;fillColor=#dae8fc;strokeColor=#6c8ebf;" vertex="1" parent="1">
          <mxGeometry x="640" y="240" width="210" height="40" as="geometry" />
        </mxCell>
        <mxCell id="8h7iC2Ebg5H2qJNhDg57-12" value="signAsync()" style="rounded=0;whiteSpace=wrap;html=1;" vertex="1" parent="1">
          <mxGeometry x="640" y="280" width="210" height="40" as="geometry" />
        </mxCell>
        <mxCell id="8h7iC2Ebg5H2qJNhDg57-14" value="UserRepository" style="rounded=0;whiteSpace=wrap;html=1;fillColor=#dae8fc;strokeColor=#6c8ebf;" vertex="1" parent="1">
          <mxGeometry x="930" y="60" width="210" height="40" as="geometry" />
        </mxCell>
        <mxCell id="8h7iC2Ebg5H2qJNhDg57-15" value="LogsRepository" style="rounded=0;whiteSpace=wrap;html=1;fillColor=#dae8fc;strokeColor=#6c8ebf;" vertex="1" parent="1">
          <mxGeometry x="930" y="100" width="210" height="40" as="geometry" />
        </mxCell>
        <mxCell id="8h7iC2Ebg5H2qJNhDg57-26" value="" style="edgeStyle=orthogonalEdgeStyle;rounded=0;orthogonalLoop=1;jettySize=auto;html=1;" edge="1" parent="1" source="8h7iC2Ebg5H2qJNhDg57-16" target="8h7iC2Ebg5H2qJNhDg57-25">
          <mxGeometry relative="1" as="geometry" />
        </mxCell>
        <mxCell id="8h7iC2Ebg5H2qJNhDg57-16" value="Repository" style="rounded=0;whiteSpace=wrap;html=1;" vertex="1" parent="1">
          <mxGeometry x="930" y="20" width="210" height="40" as="geometry" />
        </mxCell>
        <mxCell id="8h7iC2Ebg5H2qJNhDg57-23" value="Class CaslAbilityService" style="rounded=0;whiteSpace=wrap;html=1;" vertex="1" parent="1">
          <mxGeometry x="640" y="380" width="210" height="40" as="geometry" />
        </mxCell>
        <mxCell id="8h7iC2Ebg5H2qJNhDg57-24" value="RolesRepository" style="rounded=0;whiteSpace=wrap;html=1;fillColor=#dae8fc;strokeColor=#6c8ebf;" vertex="1" parent="1">
          <mxGeometry x="930" y="140" width="210" height="40" as="geometry" />
        </mxCell>
        <mxCell id="8h7iC2Ebg5H2qJNhDg57-25" value="TypeOrmModule" style="rounded=0;whiteSpace=wrap;html=1;" vertex="1" parent="1">
          <mxGeometry x="930" y="-80" width="210" height="40" as="geometry" />
        </mxCell>
        <mxCell id="8h7iC2Ebg5H2qJNhDg57-30" value="" style="edgeStyle=orthogonalEdgeStyle;rounded=0;orthogonalLoop=1;jettySize=auto;html=1;entryX=0;entryY=0.5;entryDx=0;entryDy=0;" edge="1" parent="1" source="8h7iC2Ebg5H2qJNhDg57-31" target="8h7iC2Ebg5H2qJNhDg57-34">
          <mxGeometry relative="1" as="geometry" />
        </mxCell>
        <mxCell id="8h7iC2Ebg5H2qJNhDg57-31" value="Controller AuthController" style="rounded=0;whiteSpace=wrap;html=1;fillColor=#dae8fc;strokeColor=#6c8ebf;" vertex="1" parent="1">
          <mxGeometry x="60" y="525" width="210" height="40" as="geometry" />
        </mxCell>
        <mxCell id="8h7iC2Ebg5H2qJNhDg57-34" value="Class &lt;font color=&quot;#ff0080&quot;&gt;Mock&lt;/font&gt;AuthService" style="rounded=0;whiteSpace=wrap;html=1;fillColor=#dae8fc;strokeColor=#6c8ebf;" vertex="1" parent="1">
          <mxGeometry x="360" y="525" width="210" height="40" as="geometry" />
        </mxCell>
        <mxCell id="8h7iC2Ebg5H2qJNhDg57-35" value="signin()" style="rounded=0;whiteSpace=wrap;html=1;" vertex="1" parent="1">
          <mxGeometry x="360" y="565" width="210" height="40" as="geometry" />
        </mxCell>
        <mxCell id="8h7iC2Ebg5H2qJNhDg57-36" value="signup()" style="rounded=0;whiteSpace=wrap;html=1;" vertex="1" parent="1">
          <mxGeometry x="360" y="605" width="210" height="40" as="geometry" />
        </mxCell>
      </root>
    </mxGraphModel>
  </diagram>
</mxfile>
